# xmcd
#
# Track frame offsets: 
#        150
#        16099
#        33682
#        52893
#        72805
#        89470
#        110095
#        131637
#        150790
#        167112
#        182721
#        197485
#
# Disc length: 2824 seconds
#
# Revision: 0
# Processed by: cddbd v1.5.2PL0 Copyright (c) Steve Scherf et al.
# Submitted via: ExactAudioCopy v1.0b3
#
DISCID=950b060c
DTITLE=Curly Strings - Üle Ilma 
DYEAR=2014
DGENRE=Folk
TTITLE0=Maailm heliseb
TTITLE1=Kauges Külas
TTITLE2=Kadunud Ungarisse
TTITLE3=Laul Sõbrale
TTITLE4=Reverend
TTITLE5=Kättemaks
TTITLE6=Heeringas
TTITLE7=Tuli Äkki
TTITLE8=Kui Õitseb Sirel
TTITLE9=Seitse pruuti
TTITLE10=Tall Fiddler
TTITLE11=Üle Ilma
EXTD=
EXTT0=
EXTT1=
EXTT2=
EXTT3=
EXTT4=
EXTT5=
EXTT6=
EXTT7=
EXTT8=
EXTT9=
EXTT10=
EXTT11=
PLAYORDER=
